                         ---::HD DESI ROCKERS RELEASES::---



General
Complete name                    : Dragonball Evolution Brrip 720p [Dual Audio][Hindi-Eng] ~i2009ak.mp4
Format                           : MPEG-4
Format profile                   : Base Media
Codec ID                         : isom
File size                        : 1.55 GiB
Duration                         : 1h 25mn
Overall bit rate                 : 2 600 Kbps
Encoded date                     : UTC 2011-01-08 08:24:58
Tagged date                      : UTC 2011-01-08 08:24:58
Writing application              : Yamb 2.1.0.0 [http://yamb.unite-video.com]

Video
ID                               : 1
Format                           : AVC
Format/Info                      : Advanced Video Codec
Format profile                   : Main@L4.1
Format settings, CABAC           : Yes
Format settings, ReFrames        : 3 frames
Codec ID                         : avc1
Codec ID/Info                    : Advanced Video Coding
Duration                         : 1h 25mn
Bit rate mode                    : Variable
Bit rate                         : 2 000 Kbps
Maximum bit rate                 : 7 938 Kbps
Width                            : 1 280 pixels
Height                           : 544 pixels
Display aspect ratio             : 2.35:1
Frame rate mode                  : Constant
Frame rate                       : 23.976 fps
Resolution                       : 24 bits
Colorimetry                      : 4:2:0
Scan type                        : Progressive
Bits/(Pixel*Frame)               : 0.120
Stream size                      : 1.19 GiB (77%)
Writing library                  : x264 core 68 r1183M f21daff
Encoding settings                : cabac=1 / ref=3 / deblock=1:0:0 / analyse=0x1:0x111 / me=umh / subme=7 / psy_rd=1.0:0.0 / mixed_ref=1 / me_range=16 / chroma_me=1 / trellis=2 / 8x8dct=0 / cqm=0 / deadzone=21,11 / chroma_qp_offset=-2 / threads=3 / nr=0 / decimate=1 / mbaff=0 / bframes=4 / b_pyramid=0 / b_adapt=2 / b_bias=0 / direct=1 / wpredb=1 / keyint=250 / keyint_min=25 / scenecut=40 / rc=2pass / bitrate=2000 / ratetol=1.0 / qcomp=0.60 / qpmin=10 / qpmax=51 / qpstep=4 / cplxblur=20.0 / qblur=0.5 / ip_ratio=1.40 / pb_ratio=1.30 / aq=1:1.00
Encoded date                     : UTC 2011-01-08 07:50:32
Tagged date                      : UTC 2011-01-08 08:27:25

Audio #1
ID                               : 3
Format                           : AC-3
Format/Info                      : Audio Coding 3
Codec ID                         : ac-3
Duration                         : 1h 25mn
Bit rate mode                    : Constant
Bit rate                         : 256 Kbps
Channel(s)                       : 6 channels
Channel positions                : Front: L C R, Surround: L R, LFE
Sampling rate                    : 48.0 KHz
Resolution                       : 16 bits
Stream size                      : 156 MiB (10%)
Title                            : Hindi Audio 5.1ch ~i2009ak
Language                         : Hindi
Encoded date                     : UTC 2011-01-08 07:52:32
Tagged date                      : UTC 2011-01-08 08:27:25

Audio #2
ID                               : 4
Format                           : AAC
Format/Info                      : Advanced Audio Codec
Format version                   : Version 4
Format profile                   : LC
Format settings, SBR             : No
Codec ID                         : 40
Duration                         : 1h 25mn
Bit rate mode                    : Variable
Bit rate                         : 340 Kbps
Maximum bit rate                 : 416 Kbps
Channel(s)                       : 6 channels
Channel positions                : Front: L C R, Rear: L R, LFE
Sampling rate                    : 48.0 KHz
Resolution                       : 16 bits
Stream size                      : 208 MiB (13%)
Title                            : English Audio 5.1ch ~i2009ak
Language                         : English
Encoded date                     : UTC 2011-01-08 08:26:48
Tagged date                      : UTC 2011-01-08 08:27:25

NOTE FOR USERS:--

1.No compromise with video and audio quality.So enjoy this movie with higher audio and video bitrate.

2.Use proper codecs and play with vlc media player only.

3.Plz seed after download.


Screenshots
 
http://img832.imageshack.us/img832/8919/vlcsnap00001mq.jpg 
http://img262.imageshack.us/img262/7991/dragonballevolution0102.jpg 
http://img217.imageshack.us/img217/7106/dragonballevolutionbrrij.png 
http://img821.imageshack.us/img821/9432/dragonballevolutionbrri.png 
http://img412.imageshack.us/img412/9432/dragonballevolutionbrri.png 
http://img818.imageshack.us/img818/9432/dragonballevolutionbrri.png 
http://img825.imageshack.us/img825/9432/dragonballevolutionbrri.png 
http://img217.imageshack.us/img217/9432/dragonballevolutionbrri.png 
http://img205.imageshack.us/img205/9432/dragonballevolutionbrri.png 
http://img443.imageshack.us/img443/9432/dragonballevolutionbrri.png 
http://img713.imageshack.us/img713/9432/dragonballevolutionbrri.png 
http://img593.imageshack.us/img593/9432/dragonballevolutionbrri.png 
http://img198.imageshack.us/img198/9432/dragonballevolutionbrri.png 
http://img833.imageshack.us/img833/9432/dragonballevolutionbrri.png




